<?xml version="1.0" encoding="UTF-8"?>
<svg width="24px" height="24px" viewBox="0 0 24 24" version="1.1" xmlns="http://www.w3.org/2000/svg" xmlns:xlink="http://www.w3.org/1999/xlink">
    <title>Fill 1</title>
    <g id="TFT" stroke="none" stroke-width="1" fill="none" fill-rule="evenodd">
        <g id="Taste-for-Travel-Recipe" transform="translate(-202.000000, -1540.000000)" fill="#0074E7">
            <g id="Stacked-Group-2" transform="translate(160.000000, 988.000000)">
                <g id="Expanded-Recipe" transform="translate(0.000000, 112.000000)">
                    <g id="Stacked-Group-2" transform="translate(40.000000, 440.000000)">
                        <g id="Stacked-Group-5">
                            <g id="Stacked-Group-4">
                                <g id="Padding-Group-2">
                                    <path d="M9.24086857,11.6118857 L2.68544,5.05577143 C2.21984,4.59085714 2.21984,3.83725714 2.68544,3.37097143 L5.37206857,0.683657143 C5.83698286,0.220114286 6.59195429,0.220114286 7.05618286,0.683657143 L13.6122971,7.24045714 L20.5044114,0.348342857 C20.9693257,-0.116571429 21.7242971,-0.116571429 22.1892114,0.348342857 L25.04384,3.20365714 C25.5087543,3.66925714 25.5087543,4.42354286 25.04384,4.88777143 L18.1524114,11.7798857 L24.70784,18.336 C25.17344,18.8002286 25.17344,19.5552 24.70784,20.0208 L22.0212114,22.7074286 C21.5556114,23.1716571 20.8013257,23.1716571 20.3364114,22.7074286 L13.7802971,16.1513143 L6.88818286,23.0434286 C6.42395429,23.5090286 5.66898286,23.5090286 5.20406857,23.0434286 L2.34875429,20.1888 C1.88384,19.7232 1.88384,18.9689143 2.34875429,18.504 L9.24086857,11.6118857 Z" id="Fill-1"></path>
                                </g>
                            </g>
                        </g>
                    </g>
                </g>
            </g>
        </g>
    </g>
</svg>
