<?xml version="1.0" standalone="no"?>
<!DOCTYPE svg PUBLIC "-//W3C//DTD SVG 20010904//EN"
 "http://www.w3.org/TR/2001/REC-SVG-20010904/DTD/svg10.dtd">
<svg version="1.0" xmlns="http://www.w3.org/2000/svg"
 width="632.000000pt" height="39.000000pt" viewBox="0 0 632.000000 39.000000"
 preserveAspectRatio="xMidYMid meet">
<g transform="translate(0.000000,39.000000) scale(0.100000,-0.100000)"
fill="#000000" stroke="none">
<path d="M2556 378 c-3 -7 -7 -25 -10 -40 -6 -25 -11 -28 -44 -28 -51 0 -83
-33 -89 -93 -7 -60 11 -77 80 -74 l51 2 23 110 c27 133 27 135 8 135 -9 0 -17
-6 -19 -12z"/>
<path d="M5261 283 c-25 -128 -26 -143 -6 -143 8 0 15 6 15 14 0 8 8 24 19 37
l18 23 14 -37 c9 -25 19 -37 32 -37 11 0 17 5 14 13 -33 89 -33 85 -4 115 15
15 27 31 27 35 0 18 -37 4 -68 -25 -27 -26 -33 -29 -29 -13 3 11 8 36 12 55 4
19 9 43 11 53 4 12 0 17 -14 17 -16 0 -22 -15 -41 -107z"/>
<path d="M5752 277 c-26 -134 -26 -137 -8 -137 16 0 21 12 32 75 8 42 27 64
58 65 16 0 17 -5 12 -32 -18 -93 -19 -108 -3 -108 18 0 41 90 35 137 -3 26 -7
28 -44 28 l-41 0 8 35 c12 48 11 50 -9 50 -15 0 -22 -19 -40 -113z"/>
<path d="M50 366 c0 -2 -9 -48 -20 -101 -24 -116 -24 -125 -6 -125 15 0 19 10
31 68 9 46 29 40 53 -18 12 -30 27 -50 36 -50 20 0 20 8 1 53 -20 47 -19 50 7
62 31 13 45 57 30 90 -11 23 -17 25 -72 25 -33 0 -60 -2 -60 -4z"/>
<path d="M226 280 c-63 -76 1 -174 85 -129 29 15 12 31 -26 23 -27 -5 -35 -2
-44 14 -17 31 -15 32 44 32 62 0 75 13 59 59 -8 22 -16 27 -50 29 -36 3 -45
-1 -68 -28z"/>
<path d="M626 291 c-3 -9 -12 -54 -21 -101 -9 -47 -19 -93 -21 -102 -4 -13 0
-18 14 -18 15 0 21 9 26 39 5 33 9 38 26 34 56 -15 110 38 110 108 0 48 -16
59 -78 58 -38 -1 -53 -6 -56 -18z"/>
<path d="M806 280 c-63 -76 1 -174 85 -129 29 15 12 31 -26 23 -27 -5 -35 -2
-44 14 -17 31 -15 32 44 32 62 0 75 13 59 59 -8 22 -16 27 -50 29 -36 3 -45
-1 -68 -28z"/>
<path d="M1386 279 c-73 -87 15 -190 95 -110 23 24 29 38 29 73 0 54 -13 68
-61 68 -29 0 -43 -7 -63 -31z"/>
<path d="M1551 261 c-23 -112 -24 -121 -8 -121 15 0 37 54 37 91 0 22 36 53
54 46 14 -6 13 -14 -9 -114 -4 -18 -1 -23 14 -23 15 0 21 12 30 58 12 63 25
82 54 82 17 0 19 -5 13 -32 -18 -93 -19 -108 -3 -108 18 0 41 90 35 137 -2 24
-8 29 -36 31 -18 2 -40 -2 -48 -9 -10 -8 -14 -8 -14 0 0 7 -20 10 -54 10 l-55
-2 -10 -46z"/>
<path d="M1896 279 c-73 -87 15 -190 95 -110 23 24 29 38 29 73 0 54 -13 68
-61 68 -29 0 -43 -7 -63 -31z"/>
<path d="M2616 280 c-63 -76 1 -174 85 -129 29 15 12 31 -26 23 -27 -5 -35 -2
-44 14 -17 31 -15 32 44 32 62 0 75 13 59 59 -8 22 -16 27 -50 29 -36 3 -45
-1 -68 -28z"/>
<path d="M3291 286 c-14 -15 -25 -42 -28 -69 -7 -60 11 -77 80 -74 l51 2 13
60 c21 104 21 105 -40 105 -44 0 -58 -4 -76 -24z"/>
<path d="M3656 279 c-73 -87 15 -190 95 -110 23 24 29 38 29 73 0 54 -13 68
-61 68 -29 0 -43 -7 -63 -31z"/>
<path d="M4326 279 c-73 -87 15 -190 95 -110 23 24 29 38 29 73 0 54 -13 68
-61 68 -29 0 -43 -7 -63 -31z"/>
<path d="M4726 279 c-73 -87 15 -190 95 -110 23 24 29 38 29 73 0 54 -13 68
-61 68 -29 0 -43 -7 -63 -31z"/>
<path d="M5936 280 c-63 -76 1 -174 85 -129 29 15 12 31 -26 23 -27 -5 -35 -2
-44 14 -17 31 -15 32 44 32 62 0 75 13 59 59 -8 22 -16 27 -50 29 -36 3 -45
-1 -68 -28z"/>
</g>
</svg>
