<?xml version="1.0" encoding="UTF-8"?>
<svg width="11px" height="23px" viewBox="0 0 11 23" version="1.1" xmlns="http://www.w3.org/2000/svg" xmlns:xlink="http://www.w3.org/1999/xlink">
    <g id="TFT" stroke="none" stroke-width="1" fill="none" fill-rule="evenodd">
        <g id="Taste-for-Travel-Recipe" transform="translate(-1174.000000, -1540.000000)" fill="#000000">
            <g id="Stacked-Group-2" transform="translate(160.000000, 988.000000)">
                <g id="Expanded-Recipe" transform="translate(0.000000, 112.000000)">
                    <g id="Social" transform="translate(961.000000, 440.000000)">
                        <path d="M53,7.60638432 L55.3571429,7.60638432 L55.3571429,6.52753828 L55.3571429,5.47031072 L55.3571429,5.29403684 C55.3571429,4.27672035 55.3830999,2.70397484 56.1164881,1.73114256 C56.8890179,0.700106646 57.9499588,0 59.7743651,0 C62.7470597,0 64,0.426965277 64,0.426965277 L63.4104053,3.95077996 C63.4104053,3.95077996 62.4281594,3.66433491 61.5118361,3.66433491 C60.5951008,3.66433491 59.7743651,3.9944327 59.7743651,4.91987058 L59.7743651,5.29403684 L59.7743651,6.52753828 L59.7743651,7.60638432 L63.532774,7.60638432 L63.2707319,11.0462195 L59.7743651,11.0462195 L59.7743651,23 L55.3571429,23 L55.3571429,11.0462195 L53,11.0462195 L53,7.60638432 Z" id="Facebook"></path>
                    </g>
                </g>
            </g>
        </g>
    </g>
</svg>
