<?xml version="1.0" encoding="UTF-8"?>
<svg width="37px" height="64px" viewBox="0 0 37 64" version="1.1" xmlns="http://www.w3.org/2000/svg" xmlns:xlink="http://www.w3.org/1999/xlink">
    <g id="TFT" stroke="none" stroke-width="1" fill="none" fill-rule="evenodd">
        <g id="Taste-for-Travel-Recipe" transform="translate(-703.000000, -702.000000)" fill="#000000">
            <g id="Stacked-Group-3" transform="translate(321.000000, 702.000000)">
                <g id="Group-3" transform="translate(382.000000, 0.000000)">
                    <path d="M28.9184885,37.3965522 L27.5921808,60.4006129 C27.48545,62.1415935 28.4673731,63.6297346 29.7040269,63.6297346 L34.6563346,63.6297346 C35.8317962,63.6297346 36.7767192,62.3005212 36.7767192,60.649118 L36.7767192,2.98437305 C36.7767192,1.34163866 35.8317962,-0.000577918871 34.6563346,-0.000577918871 C27.3616423,-0.000577918871 15.0819115,22.1842828 28.9184885,37.3965522 M18.3806038,1.88921679 C18.4517577,2.47291485 19.8036808,13.6339731 19.8036808,17.8975695 C19.8036808,24.397712 17.3460269,29.0326214 13.7129115,30.8964097 L14.8527962,60.4858559 C14.9139885,62.1892718 13.9505654,63.6297346 12.7309885,63.6297346 L7.07283462,63.6297346 C5.86321923,63.6297346 4.88983462,62.202275 4.95102692,60.4858559 L6.09091154,30.8964097 C2.44925769,29.0326214 0.000142307692,24.3832641 0.000142307692,17.8975695 C0.000142307692,13.6224147 1.35206538,2.47291485 1.42321923,1.88921679 C1.70641154,-0.633399083 5.42918077,-0.67096381 5.65829615,2.02647252 L5.65829615,19.574979 C5.77356538,19.9983046 6.99314231,19.9708535 7.07283462,19.574979 C7.19664231,16.4296556 7.77156538,2.27497764 7.78010385,1.95278787 C8.07183462,-0.633399083 11.7319885,-0.633399083 12.0151808,1.95278787 C12.0322577,2.28653601 12.5986423,16.4296556 12.72245,19.574979 C12.8021423,19.9708535 14.0302577,19.9983046 14.1369885,19.574979 L14.1369885,2.02647252 C14.3661038,-0.657960635 18.0974115,-0.633399083 18.3806038,1.88921679" id="Fill-1"></path>
                </g>
            </g>
        </g>
    </g>
</svg>
