<?xml version="1.0" encoding="UTF-8"?>
<svg width="25px" height="24px" viewBox="0 0 25 24" version="1.1" xmlns="http://www.w3.org/2000/svg" xmlns:xlink="http://www.w3.org/1999/xlink">
    <title>Fill 1</title>
    <g id="TFT" stroke="none" stroke-width="1" fill="none" fill-rule="evenodd">
        <g id="TFT-RecipeImageOnly" transform="translate(-35.000000, -244.000000)" fill="#0074E7">
            <g id="Group-7">
                <g id="Stacked-Group-4" transform="translate(32.972241, 244.000000)">
                    <g id="Padding-Group-2">
                        <path d="M24.9353291,9.01510814 L17.3791826,9.01510814 L17.3791826,1.17999692 C17.4675448,-0.714333333 13.6561885,0.302777237 12.7018767,0.059648104 C12.1057264,0.0602589812 11.6220906,0.561178301 11.6220906,1.17999692 L11.6220906,9.01510814 L4.06594411,9.01510814 C2.23979192,8.92408743 3.22061237,12.876463 2.986158,13.8660841 C2.986158,14.4842919 3.46979378,14.9852112 4.06594411,14.9852112 L11.6220906,14.9852112 L11.6220906,22.8215442 C11.5343175,24.7140418 15.3456738,23.6969312 16.2999856,23.9406712 C16.8961359,23.9406712 17.3791826,23.439141 17.3791826,22.8215442 L17.3791826,14.9852112 L24.9353291,14.9852112 C25.5314794,14.9852112 26.0145261,14.4842919 26.0145261,13.8660841 C25.7753591,12.8721869 26.7638376,8.92775269 24.9353291,9.01510814" id="Fill-1"></path>
                    </g>
                </g>
            </g>
        </g>
    </g>
</svg>
