<?xml version="1.0" encoding="UTF-8"?>
<svg width="17px" height="24px" viewBox="0 0 17 24" version="1.1" xmlns="http://www.w3.org/2000/svg" xmlns:xlink="http://www.w3.org/1999/xlink">
    <g id="TFT" stroke="none" stroke-width="1" fill="none" fill-rule="evenodd">
        <g id="TFT-RecipeImageOnly" transform="translate(-39.000000, -168.000000)" fill="#000000">
            <g id="Group-7">
                <g id="Stacked-Group-4" transform="translate(33.972241, 32.000000)">
                    <g transform="translate(0.000000, 136.000000)" id="Padding-Group-2">
                        <g>
                            <path d="M14,12.5714286 C18.418278,12.5714286 22,16.8998166 22,22.1714286 C22,22.7831342 17.6363636,24 14,24 C10.4444444,24 6.16161616,22.7428571 6,22.1714286 C6,16.869495 9.581722,12.5714286 14,12.5714286 Z M14,0 C16.7614237,0 19,2.55837286 19,5.71428571 C19,8.87019857 16.7614237,11.4285714 14,11.4285714 C11.2385763,11.4285714 9,8.87019857 9,5.71428571 C9,2.55837286 11.2385763,0 14,0 Z" id="Combined-Shape"></path>
                        </g>
                    </g>
                </g>
            </g>
        </g>
    </g>
</svg>
