<?xml version="1.0" encoding="UTF-8"?>
<svg width="28px" height="24px" viewBox="0 0 28 24" version="1.1" xmlns="http://www.w3.org/2000/svg" xmlns:xlink="http://www.w3.org/1999/xlink">
    <title>Plane Icon</title>
    <g id="TFT" stroke="none" stroke-width="1" fill="none" fill-rule="evenodd">
        <g id="TFT-RecipeImageOnly" transform="translate(-34.000000, -128.000000)" fill="#000000">
            <g id="Group-7">
                <g id="Stacked-Group-4" transform="translate(33.972241, 32.000000)">
                    <g id="Stacked-Group-4-Copy" transform="translate(0.000000, 96.000000)">
                        <path d="M28,11.9976966 C28.0103362,10.9934097 26.7239928,10.3612515 26.7239928,10.3612515 C26.4463423,10.2250944 26.2196464,10.1114595 26.2196464,10.1089001 C26.2196464,10.1063408 26.1972888,10.1032696 26.1702517,10.1032696 C26.1432145,10.1032696 26.1130577,10.1022458 26.1026588,10.1007102 L26.0932998,10.1007102 L26.0839408,10.1007102 C26.0745818,10.1022458 25.8130496,10.1032696 25.5031625,10.1032696 L19.0397291,10.1032696 C18.729842,10.1032696 18.3617211,9.8800947 18.2223759,9.60880415 L13.5418331,0.494465417 C13.4024879,0.223174867 13.034367,0 12.72448,0 L10.8329209,0 C10.5230338,0 10.3176556,0.245185233 10.3753695,0.544628575 L12.1244637,9.55864099 C12.1826975,9.85808433 11.9767994,10.1032696 11.6669123,10.1032696 L4.79220258,10.1032696 C4.4823155,10.1032696 4.09859626,9.88930834 3.9400131,9.62723143 L2.78625566,7.72205515 C2.62767251,7.46100198 2.24447321,7.24601702 1.93406619,7.24601702 L0.501098408,7.24601702 C0.191211326,7.24601702 0.0217093319,7.48198861 0.124658396,7.76863523 L1.44739789,11.476614 C1.55034695,11.7647962 1.54566745,12.2336682 1.43803888,12.5198029 L0.0331481168,16.2334122 C-0.0750003949,16.5200589 0.0903420412,16.753983 0.400229123,16.753983 L1.83371685,16.753983 C2.14360393,16.753983 2.52992289,16.5415574 2.6926656,16.2820398 L3.89217818,14.3681618 C4.0549209,14.1091561 4.4417598,13.8967304 4.75164688,13.8967304 L11.6268765,13.8967304 C11.9367636,13.8967304 12.1379823,14.1403801 12.0735091,14.4387997 L10.1325553,23.4579308 C10.0680821,23.7563504 10.2693008,24 10.5791878,24 L12.4707469,24 C12.780634,24 13.1518746,23.7793845 13.2964192,23.5096295 L18.1735011,14.3871009 C18.3175258,14.117346 18.6892863,13.8967304 18.9991734,13.8967304 L25.6170304,13.8967304 C25.9269175,13.8967304 26.1801306,13.8931474 26.1801306,13.8890524 C26.1801306,13.8854693 26.4078664,13.7713225 26.684997,13.636701 C26.684997,13.636701 27.9895384,13.0024954 28,11.9976966" id="Fill-1"></path>
                    </g>
                </g>
            </g>
        </g>
    </g>
</svg>
