<?xml version="1.0" standalone="no"?>
<!DOCTYPE svg PUBLIC "-//W3C//DTD SVG 20010904//EN"
 "http://www.w3.org/TR/2001/REC-SVG-20010904/DTD/svg10.dtd">
<svg version="1.0" xmlns="http://www.w3.org/2000/svg"
 width="134.000000pt" height="27.000000pt" viewBox="0 0 134.000000 27.000000"
 preserveAspectRatio="xMidYMid meet">
<g transform="translate(0.000000,27.000000) scale(0.100000,-0.100000)"
fill="#000000" stroke="none">
<path d="M734 235 c-6 -33 -9 -35 -44 -35 -51 0 -80 -35 -80 -95 0 -53 12 -63
71 -63 l47 1 21 106 c25 126 25 121 6 121 -8 0 -17 -14 -21 -35z"/>
<path d="M480 180 c-40 -40 -38 -112 5 -132 68 -31 142 63 105 133 -15 27 -83
26 -110 -1z"/>
</g>
</svg>
