<?xml version="1.0" encoding="UTF-8"?>
<svg width="21px" height="24px" viewBox="0 0 21 24" version="1.1" xmlns="http://www.w3.org/2000/svg" xmlns:xlink="http://www.w3.org/1999/xlink">
    <g id="TFT" stroke="none" stroke-width="1" fill="none" fill-rule="evenodd">
        <g id="Taste-for-Travel-Recipe" transform="translate(-1121.000000, -1540.000000)" fill="#000000">
            <g id="Stacked-Group-2" transform="translate(160.000000, 988.000000)">
                <g id="Expanded-Recipe" transform="translate(0.000000, 112.000000)">
                    <g id="Social" transform="translate(961.000000, 440.000000)">
                        <path d="M17,0 C19.209139,0 21,1.790861 21,4 C21,6.209139 19.209139,8 17,8 C16.1120926,8 15.2917552,7.71069818 14.6281074,7.221214 L7.94487409,11.3344054 C7.98112983,11.5508732 8,11.7732329 8,12 C8,12.2264166 7.98118812,12.4484394 7.94504207,12.6645908 L14.6281074,16.778786 C15.2917552,16.2893018 16.1120926,16 17,16 C19.209139,16 21,17.790861 21,20 C21,22.209139 19.209139,24 17,24 C14.790861,24 13,22.209139 13,20 C13,19.7732329 13.0188702,19.5508732 13.0551259,19.3344054 L6.37189263,15.221214 C5.70824479,15.7106982 4.88790742,16 4,16 C1.790861,16 0,14.209139 0,12 C0,9.790861 1.790861,8 4,8 C4.88790742,8 5.70824479,8.28930182 6.37189263,8.778786 L13.0551259,4.66559456 C13.0188702,4.4491268 13,4.22676708 13,4 C13,1.790861 14.790861,0 17,0 Z" id="Combined-Shape"></path>
                    </g>
                </g>
            </g>
        </g>
    </g>
</svg>
