<?xml version="1.0" encoding="UTF-8"?>
<svg width="413px" height="212px" viewBox="0 0 413 212" version="1.1" xmlns="http://www.w3.org/2000/svg" xmlns:xlink="http://www.w3.org/1999/xlink">
   <g id="TFT" stroke="none" stroke-width="1" fill="none" fill-rule="evenodd">
        <g id="Taste-for-Travel-Recipe" transform="translate(-161.000000, -248.000000)" fill="#000000">
            <g id="Masthead" transform="translate(0.000000, 68.000000)">
                <g id="Group-2" transform="translate(0.000000, 35.000000)">
                    <g id="Stacked-Group-2" transform="translate(161.000000, 145.000000)">
                        <g id="Group-6">
                            <path d="M77.0516,151.4178 C80.2376,151.4178 83.2876,151.7248 86.2006,152.3368 C89.1106,152.9508 91.6556,153.9918 93.8316,155.4628 C96.0076,156.9348 97.7396,158.9108 99.0266,161.3948 C100.3136,163.8758 100.9576,166.9888 100.9576,170.7268 C100.9576,175.0188 100.0846,178.5738 98.3376,181.3928 C96.5906,184.2118 94.2456,186.4188 91.3036,188.0128 L102.838,208.6263 L120.2659,151.4176 L139.3899,151.4176 L157.5969,211.1826 L140.8629,211.1826 L137.9199,198.4946 L121.1849,198.4946 L118.2439,211.1826 L86.6146,211.1828 L76.3156,191.1388 L70.2476,191.1388 L70.2476,211.1828 L54.4326,211.1828 L54.4326,151.4178 L77.0516,151.4178 Z M168.8146,151.418 L175.0676,177.53 C175.9256,180.718 176.6606,183.86 177.2736,186.955 C177.8866,190.052 178.6216,193.224 179.4806,196.472 L179.8496,196.472 C180.7066,193.224 181.4576,190.052 182.1016,186.955 C182.7446,183.86 183.4656,180.718 184.2626,177.53 L190.3306,151.418 L206.5136,151.418 L188.8586,211.183 L169.7346,211.183 L152.0806,151.418 L168.8146,151.418 Z M248.9906,151.418 L248.9906,164.658 L226.1876,164.658 L226.1876,174.036 L245.6816,174.036 L245.6816,187.276 L226.1876,187.276 L226.1876,197.942 L249.9096,197.942 L249.9096,211.183 L210.3736,211.183 L210.3736,151.418 L248.9906,151.418 Z M275.4717,151.418 L275.4717,197.942 L298.0917,197.942 L298.0917,211.183 L259.6577,211.183 L259.6577,151.418 L275.4717,151.418 Z M47.445,151.4182 L47.445,164.6582 L31.63,164.6582 L31.63,211.1822 L15.815,211.1822 L15.815,164.6582 L2.62545541e-12,164.6582 L2.62545541e-12,151.4182 L47.445,151.4182 Z M352.781796,2 L393.730893,73.0623795 L413,106.4995 L393.730893,139.93762 L352.781796,211 L323,211 L383.217206,106.4995 L323,2 L352.781796,2 Z M129.6439,163.1876 L129.2759,163.1876 C128.6019,166.2526 127.9119,169.4546 127.2089,172.7946 C126.5029,176.1366 125.7829,179.2466 125.0479,182.1276 L124.0369,186.2656 L135.0699,186.2656 L134.0579,182.1276 C133.3229,179.2466 132.5869,176.1206 131.8509,172.7486 C131.1159,169.3786 130.3809,166.1916 129.6439,163.1876 Z M75.9486,163.9218 L70.2476,163.9218 L70.2476,178.6348 L75.9486,178.6348 C82.3226,178.6348 85.5106,175.9988 85.5106,170.7268 C85.5106,168.1528 84.6976,166.3748 83.0746,165.3938 C81.4496,164.4138 79.0746,163.9218 75.9486,163.9218 Z M76.1325,75.1576 C80.2375,75.1576 84.0075,75.8316 87.4415,77.1796 C90.8735,78.5286 93.8005,80.5216 96.2225,83.1566 C98.6435,85.7926 100.5275,89.0106 101.8765,92.8106 C103.2255,96.6126 103.8995,100.9636 103.8995,105.8676 C103.8995,110.7716 103.2255,115.1696 101.8765,119.0616 C100.5275,122.9556 98.6435,126.2336 96.2225,128.9006 C93.8005,131.5666 90.8735,133.6056 87.4415,135.0146 C85.7303889,135.717711 83.9315741,136.239094 82.0520789,136.589985 L81.3435,136.7136 L79.5145,118.6866 C79.4715,117.9096 79.9025,117.5416 80.4425,117.4056 C84.9758333,116.245796 86.9736034,112.091951 86.6487751,106.946501 L86.6265,106.6366 L85.0585,87.1866 C84.9525,86.0746 84.4165,85.4246 83.4245,85.4246 C82.4818684,85.4246 81.8560568,86.0447773 81.792793,87.020698 L81.7875,87.1866 L81.7885,103.4716 C81.7885,104.5451 81.1775075,105.2576 80.2170219,105.326166 L80.0625,105.3316 L79.9825,105.3316 C78.98785,105.3316 78.3262225,104.672775 78.2625464,103.638059 L78.2575,103.4716 L78.2575,87.1876 C78.2575,86.1176 77.6155,85.4256 76.6215,85.4256 C75.6798158,85.4256 75.054054,86.0457773 74.9907929,87.021698 L74.9855,87.1876 L74.9855,103.4716 C74.9855,104.5451 74.3763125,105.2576 73.41515,105.326166 L73.2605,105.3316 L73.1825,105.3316 C72.18595,105.3316 71.52513,104.672775 71.4615394,103.638059 L71.4565,103.4716 L71.4565,87.1866 C71.4565,86.1166 70.8145,85.4246 69.8205,85.4236 C68.8826667,85.4236 68.353358,86.0042759 68.2081439,87.0055678 L68.1865,87.1866 L66.6185,106.6366 C66.1925,111.9256 68.1795,116.2246 72.8045,117.4066 C73.3085,117.534467 73.7175489,117.86356 73.7357012,118.537788 L73.7335,118.6876 L71.8875,136.8646 C69.3555,136.5426 66.9845,135.9296 64.7755,135.0146 C61.3745,133.6056 58.4625,131.5666 56.0415,128.9006 C53.6195,126.2336 51.7335,122.9556 50.3875,119.0616 C49.0385,115.1696 48.3635,110.7716 48.3635,105.8676 C48.3635,100.9636 49.0385,96.5966 50.3875,92.7646 C51.7335,88.9346 53.6195,85.7166 56.0415,83.1106 C58.4625,80.5056 61.3745,78.5286 64.7755,77.1796 C68.1785,75.8316 71.9625,75.1576 76.1325,75.1576 Z M43.3986,76.2608 L43.3986,89.5008 L20.2286,89.5008 L20.2286,100.9028 L40.0896,100.9028 L40.0896,114.1428 L20.2286,114.1428 L20.2286,136.0268 L4.4136,136.0268 L4.4136,76.2608 L43.3986,76.2608 Z M135.3455,76.2606 C138.5315,76.2606 141.5815,76.5686 144.4935,77.1796 C147.4045,77.7926 149.9485,78.8346 152.1255,80.3056 C154.3015,81.7776 156.0335,83.7536 157.3205,86.2366 C158.6075,88.7186 159.2515,91.8306 159.2515,95.5696 C159.2515,99.8606 158.3775,103.4156 156.6305,106.2356 C154.8835,109.0546 152.5395,111.2616 149.5965,112.8556 L162.5625,136.0266 L144.9075,136.0266 L134.6085,115.9816 L128.5415,115.9816 L128.5415,136.0266 L112.7265,136.0266 L112.7265,76.2606 L135.3455,76.2606 Z M134.2425,88.7646 L128.5415,88.7646 L128.5415,103.4766 L134.2425,103.4766 C140.6165,103.4766 143.8045,100.8416 143.8045,95.5696 C143.8045,92.9946 142.9905,91.2176 141.3675,90.2366 C139.7425,89.2566 137.3685,88.7646 134.2425,88.7646 Z M123.3928,0.0003 C126.8258,0.0003 130.3028,0.6433 133.8298,1.9303 C137.3528,3.2173 140.4958,5.2403 143.2538,7.9993 L135.3458,17.9293 C133.3228,16.5203 131.3768,15.4463 129.5078,14.7113 C127.6358,13.9753 125.5998,13.6083 123.3928,13.6083 C121.4298,13.6083 119.8988,13.9453 118.7968,14.6193 C117.6918,15.2953 117.1408,16.3053 117.1408,17.6533 C117.1408,19.0643 117.9228,20.1523 119.4848,20.9183 C121.0488,21.6843 123.2098,22.5893 125.9668,23.6313 L133.2308,26.4803 C136.9688,27.9523 139.8508,30.0063 141.8748,32.6403 C143.8968,35.2773 144.9088,38.6793 144.9088,42.8463 C144.9088,45.3613 144.3868,47.7823 143.3448,50.1113 C142.3018,52.4413 140.7858,54.4783 138.7948,56.2253 C136.8008,57.9723 134.3648,59.3683 131.4838,60.4093 C128.6018,61.4503 125.2928,61.9723 121.5538,61.9723 C117.7528,61.9723 113.8448,61.2833 109.8308,59.9033 C105.8148,58.5243 102.1828,56.3633 98.9348,53.4213 L107.9458,42.5713 C110.0918,44.2883 112.4048,45.6833 114.8878,46.7553 C117.3698,47.8283 119.7158,48.3643 121.9228,48.3643 C124.3118,48.3643 126.0438,47.9963 127.1168,47.2603 C128.1888,46.5253 128.7258,45.4833 128.7258,44.1343 C128.7258,43.3993 128.5428,42.7873 128.1748,42.2963 C127.8058,41.8053 127.2688,41.3453 126.5648,40.9173 C125.8588,40.4883 125.0158,40.0753 124.0368,39.6753 C123.0548,39.2773 121.9228,38.8333 120.6348,38.3423 L113.1868,35.2163 C111.5918,34.6033 110.0608,33.7903 108.5898,32.7793 C107.1178,31.7673 105.8308,30.5723 104.7278,29.1933 C103.6248,27.8133 102.7508,26.2363 102.1068,24.4583 C101.4638,22.6803 101.1418,20.7193 101.1418,18.5733 C101.1418,15.9993 101.6938,13.5933 102.7968,11.3553 C103.8998,9.1183 105.4308,7.1573 107.3938,5.4703 C109.3548,3.7853 111.6998,2.4523 114.4278,1.4703 C117.1558,0.4913 120.1428,0.0003 123.3928,0.0003 Z M239.43,1.1035 L239.43,14.3435 L216.627,14.3435 L216.627,23.7225 L236.121,23.7225 L236.121,36.9625 L216.627,36.9625 L216.627,47.6285 L240.349,47.6285 L240.349,60.8695 L200.812,60.8695 L200.812,1.1035 L239.43,1.1035 Z M47.445,1.1032 L47.445,14.3442 L31.63,14.3442 L31.63,60.8692 L15.815,60.8692 L15.815,14.3442 L2.62545541e-12,14.3442 L2.62545541e-12,1.1032 L47.445,1.1032 Z M80.5451,1.1032 L98.7511,60.8692 L82.0171,60.8692 L79.0751,48.1802 L62.3401,48.1802 L59.3991,60.8692 L43.2151,60.8692 L61.4201,1.1032 L80.5451,1.1032 Z M193.8248,1.1038 L193.8248,14.3438 L178.0108,14.3438 L178.0108,60.8688 L162.1958,60.8688 L162.1958,14.3438 L146.3808,14.3438 L146.3808,1.1038 L193.8248,1.1038 Z M70.7991,12.8732 L70.4311,12.8732 C69.7561,15.9382 69.0671,19.1402 68.3631,22.4802 C67.6581,25.8222 66.9381,28.9332 66.2031,31.8132 L65.1911,35.9512 L76.2251,35.9512 L75.2121,31.8132 C74.4781,28.9332 73.7421,25.8062 73.0061,22.4342 C72.2711,19.0642 71.5351,15.8772 70.7991,12.8732 Z" id="Combined-Shape"></path>
                        </g>
                    </g>
                </g>
            </g>
        </g>
    </g>
</svg>
