<?xml version="1.0" encoding="UTF-8"?>
<svg width="23px" height="19px" viewBox="0 0 23 19" version="1.1" xmlns="http://www.w3.org/2000/svg" xmlns:xlink="http://www.w3.org/1999/xlink">
    <g id="TFT" stroke="none" stroke-width="1" fill="none" fill-rule="evenodd">
        <g id="Taste-for-Travel-Recipe" transform="translate(-1217.000000, -1542.000000)" fill="#000000">
            <g id="Stacked-Group-2" transform="translate(160.000000, 988.000000)">
                <g id="Expanded-Recipe" transform="translate(0.000000, 112.000000)">
                    <g id="Social" transform="translate(961.000000, 440.000000)">
                        <path d="M119,4.24926409 C118.153319,4.63074997 117.244225,4.88869118 116.289553,5.00472299 C117.263523,4.41079039 118.012479,3.47084926 118.364373,2.35101709 C117.452405,2.90070735 116.442711,3.29972321 115.367729,3.51467422 C114.507498,2.58266333 113.280591,2 111.92393,2 C109.317778,2 107.20477,4.1478406 107.20477,6.79653794 C107.20477,7.17259786 107.246653,7.53864066 107.327133,7.88965775 C103.405381,7.68973244 99.9283215,5.77979878 97.6009748,2.8781688 C97.1948799,3.58646369 96.9624737,4.41037301 96.9624737,5.28937657 C96.9624737,6.95347305 97.7951941,8.42181802 99.0615203,9.28203945 C98.287928,9.25699662 97.5603242,9.04121084 96.9242868,8.68184614 C96.9238762,8.70188041 96.9238762,8.72191468 96.9238762,8.74236633 C96.9238762,11.0663415 98.5503089,13.0046571 100.708894,13.445411 C100.313065,13.5547647 99.8962938,13.6136154 99.4655622,13.6136154 C99.1617096,13.6136154 98.8660692,13.583564 98.5778198,13.527635 C99.1785446,15.4329775 100.92118,16.8203506 102.986146,16.8583322 C101.3708,18.1451166 99.3362195,18.9118448 97.1254865,18.9118448 C96.7444389,18.9118448 96.3691399,18.8893063 96,18.8446465 C98.0879602,20.2057247 100.568465,21 103.233335,21 C111.912433,21 116.659103,13.6912482 116.659103,7.35290629 C116.659103,7.14463336 116.654176,6.93802996 116.645553,6.73226132 C117.567376,6.05610474 118.367247,5.21132639 119,4.24926409" id="Twitter"></path>
                    </g>
                </g>
            </g>
        </g>
    </g>
</svg>
